<svg width="512" height="512" viewBox="0 0 512 512" fill="none" xmlns="http://www.w3.org/2000/svg">
<rect x="16" y="16" width="480" height="480" rx="10" stroke="white" stroke-width="20" stroke-miterlimit="16" stroke-linejoin="round"/>
<rect x="21" y="21" width="470" height="470" rx="16" fill="white"/>
<path d="M246.924 155.364V231H233.112L200.205 183.395H199.651V231H183.66V155.364H197.694L230.342 202.932H231.006V155.364H246.924ZM329.642 193.182C329.642 201.43 328.079 208.447 324.952 214.233C321.849 220.019 317.615 224.438 312.247 227.491C306.904 230.52 300.897 232.034 294.224 232.034C287.503 232.034 281.471 230.508 276.128 227.455C270.785 224.402 266.563 219.982 263.46 214.196C260.358 208.41 258.807 201.405 258.807 193.182C258.807 184.934 260.358 177.917 263.46 172.131C266.563 166.345 270.785 161.937 276.128 158.909C281.471 155.856 287.503 154.33 294.224 154.33C300.897 154.33 306.904 155.856 312.247 158.909C317.615 161.937 321.849 166.345 324.952 172.131C328.079 177.917 329.642 184.934 329.642 193.182ZM313.429 193.182C313.429 187.839 312.629 183.333 311.028 179.665C309.453 175.996 307.224 173.214 304.344 171.318C301.463 169.422 298.09 168.474 294.224 168.474C290.359 168.474 286.986 169.422 284.105 171.318C281.224 173.214 278.984 175.996 277.384 179.665C275.808 183.333 275.02 187.839 275.02 193.182C275.02 198.525 275.808 203.03 277.384 206.699C278.984 210.367 281.224 213.15 284.105 215.045C286.986 216.941 290.359 217.889 294.224 217.889C298.09 217.889 301.463 216.941 304.344 215.045C307.224 213.15 309.453 210.367 311.028 206.699C312.629 203.03 313.429 198.525 313.429 193.182ZM107.89 281.364V357H91.8981V281.364H107.89ZM121.047 281.364H140.768L161.598 332.182H162.484L183.314 281.364H203.035V357H187.524V307.77H186.896L167.322 356.631H156.76L137.186 307.585H136.558V357H121.047V281.364ZM229.248 357H212.111L238.222 281.364H258.83L284.904 357H267.767L248.821 298.648H248.23L229.248 357ZM228.176 327.27H268.654V339.753H228.176V327.27ZM340.606 305.812C340.089 304.015 339.363 302.427 338.427 301.048C337.492 299.645 336.347 298.463 334.993 297.503C333.663 296.518 332.136 295.767 330.413 295.25C328.714 294.733 326.831 294.474 324.762 294.474C320.897 294.474 317.499 295.435 314.569 297.355C311.664 299.276 309.399 302.07 307.774 305.739C306.149 309.383 305.336 313.839 305.336 319.108C305.336 324.377 306.136 328.858 307.737 332.551C309.337 336.244 311.602 339.063 314.532 341.009C317.462 342.929 320.922 343.889 324.91 343.889C328.529 343.889 331.619 343.249 334.18 341.969C336.765 340.664 338.735 338.83 340.089 336.466C341.468 334.102 342.157 331.308 342.157 328.082L345.407 328.562H325.907V316.523H357.558V326.051C357.558 332.699 356.154 338.411 353.348 343.188C350.541 347.939 346.675 351.608 341.751 354.193C336.827 356.754 331.189 358.034 324.836 358.034C317.745 358.034 311.516 356.471 306.149 353.344C300.781 350.192 296.596 345.723 293.592 339.938C290.613 334.127 289.123 327.233 289.123 319.256C289.123 313.125 290.01 307.659 291.782 302.858C293.58 298.032 296.091 293.945 299.316 290.597C302.542 287.248 306.297 284.7 310.581 282.952C314.865 281.204 319.506 280.33 324.504 280.33C328.788 280.33 332.777 280.957 336.47 282.213C340.163 283.444 343.438 285.192 346.294 287.457C349.174 289.723 351.526 292.419 353.348 295.545C355.17 298.648 356.339 302.07 356.856 305.812H340.606ZM369.57 357V281.364H420.536V294.548H385.561V312.571H417.914V325.756H385.561V343.815H420.684V357H369.57Z" fill="black"/>
</svg>
