<svg width="300" height="300" viewBox="0 0 300 300" fill="none" xmlns="http://www.w3.org/2000/svg">
<path d="M0 50C0 22.3858 22.3858 0 50 0H186C213.614 0 236 22.3858 236 50V186C236 213.614 213.614 236 186 236H50C22.3858 236 0 213.614 0 186V50Z" fill="white"/>
<path d="M113.275 41.6427C114.829 37.1577 121.171 37.1577 122.725 41.6427L138.67 87.684C139.355 89.6641 141.203 91.0066 143.298 91.0469L192.013 91.9838C196.759 92.0751 198.719 98.1075 194.933 100.971L156.073 130.363C154.401 131.627 153.696 133.799 154.305 135.804L168.467 182.424C169.847 186.966 164.716 190.694 160.823 187.979L120.861 160.102C119.142 158.904 116.858 158.904 115.139 160.102L75.1773 187.979C71.2845 190.694 66.153 186.966 67.5326 182.424L81.6953 135.804C82.3044 133.799 81.5987 131.627 79.9274 130.363L41.0667 100.971C37.2812 98.1075 39.2413 92.0751 43.9867 91.9838L92.7019 91.0469C94.797 91.0066 96.6447 89.6641 97.3304 87.684L113.275 41.6427Z" fill="#100404" fill-opacity="0.5"/>
</svg>
