<svg width="48" height="24" viewBox="0 0 48 24" fill="none" xmlns="http://www.w3.org/2000/svg">
<path d="M43.2568 0.00683594C45.8989 0.140529 48 2.32472 48 5V19C48 21.7614 45.7614 24 43 24H5C2.23858 24 0 21.7614 0 19V5C0 2.32472 2.10111 0.140528 4.74316 0.00683594L5 0H43L43.2568 0.00683594ZM5 2C3.34315 2 2 3.34315 2 5V19C2 20.6569 3.34315 22 5 22H43C44.6569 22 46 20.6569 46 19V5C46 3.34315 44.6569 2 43 2H5ZM21.4736 6.67871C22.3718 6.67871 23.1802 6.88497 23.8994 7.2959C24.622 7.70357 25.1927 8.29631 25.6104 9.0752C26.0313 9.85407 26.2412 10.7989 26.2412 11.9092C26.2412 13.0195 26.0313 13.9643 25.6104 14.7432C25.1927 15.522 24.6219 16.1164 23.8994 16.5273C23.1802 16.9349 22.3718 17.1396 21.4736 17.1396C20.5689 17.1396 19.7572 16.9333 19.0381 16.5225C18.3189 16.1115 17.7496 15.5171 17.332 14.7383C16.9144 13.9594 16.7061 13.0161 16.7061 11.9092C16.7061 10.7989 16.9144 9.85406 17.332 9.0752C17.7496 8.29631 18.3189 7.70357 19.0381 7.2959C19.7573 6.88498 20.5689 6.67872 21.4736 6.67871ZM9 7C11.7614 7 14 9.23858 14 12C14 14.7614 11.7614 17 9 17C6.23858 17 4 14.7614 4 12C4 9.23858 6.23858 7 9 7ZM34.5771 8.59277H29.9893V11.0195H34.1299V12.7939H29.9893V17H27.8359V6.81836H34.5771V8.59277ZM42.7666 8.59277H38.1787V11.0195H42.3193V12.7939H38.1787V17H36.0254V6.81836H42.7666V8.59277ZM21.4736 8.58301C20.9533 8.58302 20.4991 8.71063 20.1113 8.96582C19.7236 9.22103 19.4225 9.59603 19.207 10.0898C18.995 10.5837 18.8887 11.19 18.8887 11.9092C18.8887 12.6284 18.9949 13.2347 19.207 13.7285C19.4225 14.2224 19.7235 14.5973 20.1113 14.8525C20.4991 15.1077 20.9533 15.2353 21.4736 15.2354C21.9939 15.2354 22.4482 15.1077 22.8359 14.8525C23.2237 14.5973 23.5232 14.2224 23.7354 13.7285C23.9508 13.2347 24.0586 12.6284 24.0586 11.9092C24.0586 11.19 23.9507 10.5837 23.7354 10.0898C23.5232 9.596 23.2237 9.22103 22.8359 8.96582C22.4482 8.71063 21.994 8.58301 21.4736 8.58301Z" fill="white"/>
</svg>
