<svg width="48" height="24" viewBox="0 0 48 24" fill="none" xmlns="http://www.w3.org/2000/svg">
<path d="M43 0C45.7614 5.15405e-07 48 2.23858 48 5V19C48 21.7614 45.7614 24 43 24H5C2.23858 24 0 21.7614 0 19V5C0 2.23858 2.23858 0 5 0H43ZM10.4736 6.67871C9.5689 6.67872 8.75725 6.88498 8.03809 7.2959C7.31886 7.70357 6.74964 8.29631 6.33203 9.0752C5.91445 9.85406 5.70605 10.7989 5.70605 11.9092C5.70607 13.0161 5.91443 13.9594 6.33203 14.7383C6.74964 15.5171 7.3189 16.1115 8.03809 16.5225C8.75723 16.9333 9.56893 17.1396 10.4736 17.1396C11.3718 17.1396 12.1802 16.9349 12.8994 16.5273C13.6219 16.1164 14.1927 15.522 14.6104 14.7432C15.0313 13.9643 15.2412 13.0195 15.2412 11.9092C15.2412 10.7989 15.0313 9.85407 14.6104 9.0752C14.1927 8.29631 13.622 7.70357 12.8994 7.2959C12.1802 6.88497 11.3718 6.67871 10.4736 6.67871ZM16.8359 6.81836V17H18.9893V10.5918H19.0635L23.4932 17H25.3525V6.81836H23.21V13.2217H23.1201L18.7256 6.81836H16.8359ZM38 7C35.2386 7 33 9.23858 33 12C33 14.7614 35.2386 17 38 17C40.7614 17 43 14.7614 43 12C43 9.23858 40.7614 7 38 7ZM10.4736 8.58301C10.994 8.58301 11.4482 8.71063 11.8359 8.96582C12.2237 9.22103 12.5232 9.596 12.7354 10.0898C12.9507 10.5837 13.0586 11.19 13.0586 11.9092C13.0586 12.6284 12.9508 13.2347 12.7354 13.7285C12.5232 14.2224 12.2237 14.5973 11.8359 14.8525C11.4482 15.1077 10.9939 15.2354 10.4736 15.2354C9.95331 15.2353 9.49909 15.1077 9.11133 14.8525C8.72354 14.5973 8.42247 14.2224 8.20703 13.7285C7.99492 13.2347 7.88868 12.6284 7.88867 11.9092C7.88867 11.19 7.99496 10.5837 8.20703 10.0898C8.42245 9.59603 8.72358 9.22103 9.11133 8.96582C9.49909 8.71063 9.95331 8.58302 10.4736 8.58301Z" fill="white"/>
</svg>
